<svg id="Layer_1" enable-background="new 0 0 512 512" height="512" viewBox="0 0 512 512" width="512" xmlns="http://www.w3.org/2000/svg"><g><g><g><g><path d="m372.273 20.65v435.7l-29.84 5.5-121.16 22.32-151-27.82v-435.7c0-11.38 9.26-20.65 20.65-20.65h57.09l73.26 17 73.26-17h57.08c11.39 0 20.66 9.27 20.66 20.65z" fill="#d9f9f8"/><path d="m372.273 20.65v435.7l-29.84 5.5v-461.85h9.18c11.39 0 20.66 9.27 20.66 20.65z" fill="#c1eaf4"/><path d="m372.273 456.35v35c0 11.38-9.27 20.65-20.66 20.65h-260.69c-11.39 0-20.65-9.27-20.65-20.65v-35z" fill="#466175"/><path d="m372.273 456.35v35c0 11.38-9.27 20.65-20.66 20.65h-260.69c-11.39 0-20.65-9.27-20.65-20.65v-9.26h251.96c11.16 0 20.2-9.05 20.2-20.21v-5.53z" fill="#2d4859"/><path d="m294.533 0-6.93 25.25c-1.81 6.61-7.82 11.19-14.67 11.19h-103.32c-6.85 0-12.86-4.58-14.68-11.19l-1.93-7.03-4.99-18.22z" fill="#466175"/><path d="m294.533 0-6.93 25.25c-1.81 6.61-7.82 11.19-14.67 11.19h-103.32c-6.85 0-12.86-4.58-14.68-11.19l-1.93-7.03h102.44c6.86 0 12.87-4.58 14.68-11.19l1.93-7.03h22.48z" fill="#2d4859"/></g></g></g><g><g><path d="m441.727 247c0 27.411-7.099 53.158-19.567 75.511-24.138 43.3-68.371 73.847-120.109 78.999-5.139.527-10.345.784-15.619.784-58.364 0-109.196-32.184-135.727-79.784-12.468-22.353-19.567-48.1-19.567-75.511 0-27.316 7.045-52.982 19.446-75.281 26.477-47.722 77.39-80.014 135.849-80.014 4.422 0 8.803.189 13.131.554 52.887 4.422 98.242 35.348 122.718 79.459 12.4 22.301 19.445 47.967 19.445 75.283z" fill="#57f3ff"/><g fill="#55d7ff"><path d="m441.727 247c0 27.411-7.099 53.158-19.567 75.511-24.138 43.3-68.371 73.847-120.109 78.999 60.555-24.949 103.165-84.557 103.165-154.118 0-70.521-43.787-130.805-105.653-155.132 52.887 4.422 98.242 35.348 122.718 79.459 12.401 22.299 19.446 47.965 19.446 75.281z"/><path d="m441.727 247c0 27.411-7.099 53.158-19.567 75.511h-271.455c-12.468-22.353-19.567-48.1-19.567-75.511z"/><path d="m422.282 171.719h-271.698c26.477-47.722 77.39-80.014 135.849-80.014 4.422 0 8.803.189 13.131.554 52.886 4.423 98.242 35.349 122.718 79.46z"/><path d="m342.782 247c0 27.411-2.583 53.158-7.099 75.511-9.628 47.6-28.073 79.784-49.25 79.784-21.176 0-39.621-32.184-49.25-79.784-4.517-22.353-7.099-48.1-7.099-75.511 0-27.316 2.556-52.982 7.059-75.281 9.615-47.722 28.087-80.014 49.29-80.014 21.204 0 39.676 32.292 49.29 80.014 4.503 22.299 7.059 47.965 7.059 75.281z"/></g><path d="m335.723 171.719h-98.58c9.615-47.722 28.087-80.014 49.29-80.014s39.675 32.292 49.29 80.014z" fill="#57bbff"/><path d="m342.782 247c0 27.411-2.583 53.158-7.099 75.511h-98.499c-4.517-22.353-7.099-48.1-7.099-75.511z" fill="#57bbff"/><path d="m422.282 171.719h-35.186c-18.418-36.065-49.574-64.53-87.532-79.459 52.886 4.422 98.242 35.348 122.718 79.459z" fill="#57bbff"/><path d="m441.727 247c0 27.411-7.099 53.158-19.567 75.511h-34.794c11.413-22.569 17.85-48.087 17.85-75.119v-.392z" fill="#57bbff"/></g></g></g></svg>